<svg width="28" height="28" viewBox="0 0 28 28" fill="none" xmlns="http://www.w3.org/2000/svg">
<path d="M23.3359 2.33301H4.66927C3.38061 2.33301 2.33594 3.37768 2.33594 4.66634V9.33301C2.33594 10.6217 3.38061 11.6663 4.66927 11.6663H23.3359C24.6246 11.6663 25.6693 10.6217 25.6693 9.33301V4.66634C25.6693 3.37768 24.6246 2.33301 23.3359 2.33301Z" stroke="#1447E6" stroke-width="2.33333" stroke-linecap="round" stroke-linejoin="round"/>
<path d="M23.3359 16.333H4.66927C3.38061 16.333 2.33594 17.3777 2.33594 18.6663V23.333C2.33594 24.6217 3.38061 25.6663 4.66927 25.6663H23.3359C24.6246 25.6663 25.6693 24.6217 25.6693 23.333V18.6663C25.6693 17.3777 24.6246 16.333 23.3359 16.333Z" stroke="#1447E6" stroke-width="2.33333" stroke-linecap="round" stroke-linejoin="round"/>
<path d="M7 7H7.01167" stroke="#1447E6" stroke-width="2.33333" stroke-linecap="round" stroke-linejoin="round"/>
<path d="M7 21H7.01167" stroke="#1447E6" stroke-width="2.33333" stroke-linecap="round" stroke-linejoin="round"/>
</svg>
