<svg width="18" height="18" viewBox="0 0 18 18" fill="none" xmlns="http://www.w3.org/2000/svg">
<g clip-path="url(#clip0_2196_730)">
<path d="M6 16.5C6.41421 16.5 6.75 16.1642 6.75 15.75C6.75 15.3358 6.41421 15 6 15C5.58579 15 5.25 15.3358 5.25 15.75C5.25 16.1642 5.58579 16.5 6 16.5Z" stroke="#101828" stroke-width="1.5" stroke-linecap="round" stroke-linejoin="round"/>
<path d="M14.25 16.5C14.6642 16.5 15 16.1642 15 15.75C15 15.3358 14.6642 15 14.25 15C13.8358 15 13.5 15.3358 13.5 15.75C13.5 16.1642 13.8358 16.5 14.25 16.5Z" stroke="#101828" stroke-width="1.5" stroke-linecap="round" stroke-linejoin="round"/>
<path d="M1.53711 1.53748H3.03711L5.03211 10.8525C5.10529 11.1936 5.29511 11.4986 5.56889 11.7149C5.84267 11.9312 6.18329 12.0452 6.53211 12.0375H13.8671C14.2085 12.0369 14.5395 11.9199 14.8054 11.7059C15.0713 11.4918 15.2562 11.1934 15.3296 10.86L16.5671 5.28748H3.83961" stroke="#101828" stroke-width="1.5" stroke-linecap="round" stroke-linejoin="round"/>
</g>
<defs>
<clipPath id="clip0_2196_730">
<rect width="18" height="18" fill="white"/>
</clipPath>
</defs>
</svg>
