<svg width="20" height="20" viewBox="0 0 20 20" fill="none" xmlns="http://www.w3.org/2000/svg">
<g clip-path="url(#clip0_2196_2596)">
<path d="M6.66732 18.3337C7.12756 18.3337 7.50065 17.9606 7.50065 17.5003C7.50065 17.0401 7.12756 16.667 6.66732 16.667C6.20708 16.667 5.83398 17.0401 5.83398 17.5003C5.83398 17.9606 6.20708 18.3337 6.66732 18.3337Z" stroke="white" stroke-width="1.66667" stroke-linecap="round" stroke-linejoin="round"/>
<path d="M15.8333 18.3337C16.2936 18.3337 16.6667 17.9606 16.6667 17.5003C16.6667 17.0401 16.2936 16.667 15.8333 16.667C15.3731 16.667 15 17.0401 15 17.5003C15 17.9606 15.3731 18.3337 15.8333 18.3337Z" stroke="white" stroke-width="1.66667" stroke-linecap="round" stroke-linejoin="round"/>
<path d="M1.70898 1.70801H3.37565L5.59232 12.058C5.67363 12.4371 5.88454 12.7759 6.18874 13.0162C6.49294 13.2565 6.87141 13.3833 7.25898 13.3747H15.409C15.7883 13.3741 16.1561 13.2441 16.4515 13.0062C16.747 12.7683 16.9524 12.4368 17.034 12.0663L18.409 5.87467H4.26732" stroke="white" stroke-width="1.66667" stroke-linecap="round" stroke-linejoin="round"/>
</g>
<defs>
<clipPath id="clip0_2196_2596">
<rect width="20" height="20" fill="white"/>
</clipPath>
</defs>
</svg>
