<svg width="28" height="28" viewBox="0 0 28 28" fill="none" xmlns="http://www.w3.org/2000/svg">
<path d="M20.4172 22.1663H10.5005C8.98602 22.166 7.50147 21.7444 6.21275 20.9489C4.92403 20.1533 3.88192 19.0151 3.20286 17.6614C2.5238 16.3077 2.23456 14.7918 2.36744 13.2831C2.50032 11.7745 3.0501 10.3325 3.95533 9.11832C4.86057 7.90414 6.08561 6.9656 7.49355 6.40758C8.90149 5.84955 10.4369 5.69403 11.9281 5.95838C13.4193 6.22274 14.8077 6.89656 15.938 7.90455C17.0684 8.91254 17.8961 10.215 18.3288 11.6663H20.4172C21.8096 11.6663 23.1449 12.2195 24.1295 13.204C25.1141 14.1886 25.6672 15.524 25.6672 16.9163C25.6672 18.3087 25.1141 19.6441 24.1295 20.6287C23.1449 21.6132 21.8096 22.1663 20.4172 22.1663Z" stroke="#1447E6" stroke-width="2.33333" stroke-linecap="round" stroke-linejoin="round"/>
</svg>
