<svg width="32" height="32" viewBox="0 0 32 32" fill="none" xmlns="http://www.w3.org/2000/svg">
<path d="M17.1073 2.90649C16.7599 2.74802 16.3825 2.66602 16.0006 2.66602C15.6188 2.66602 15.2414 2.74802 14.8939 2.90649L3.46727 8.10649C3.23067 8.21082 3.02951 8.38169 2.88829 8.5983C2.74706 8.81491 2.67188 9.06791 2.67188 9.32649C2.67188 9.58507 2.74706 9.83807 2.88829 10.0547C3.02951 10.2713 3.23067 10.4422 3.46727 10.5465L14.9073 15.7598C15.2547 15.9183 15.6321 16.0003 16.0139 16.0003C16.3958 16.0003 16.7732 15.9183 17.1206 15.7598L28.5606 10.5598C28.7972 10.4555 28.9984 10.2846 29.1396 10.068C29.2808 9.85141 29.356 9.59841 29.356 9.33983C29.356 9.08125 29.2808 8.82824 29.1396 8.61163C28.9984 8.39502 28.7972 8.22415 28.5606 8.11983L17.1073 2.90649Z" stroke="#1447E6" stroke-width="2.66667" stroke-linecap="round" stroke-linejoin="round"/>
<path d="M2.66797 16C2.66734 16.255 2.73986 16.5049 2.87693 16.7199C3.014 16.935 3.20987 17.1062 3.44131 17.2133L14.908 22.4267C15.2536 22.5832 15.6286 22.6641 16.008 22.6641C16.3874 22.6641 16.7624 22.5832 17.108 22.4267L28.548 17.2267C28.784 17.1206 28.984 16.9481 29.1237 16.7303C29.2634 16.5125 29.3367 16.2587 29.3346 16" stroke="#1447E6" stroke-width="2.66667" stroke-linecap="round" stroke-linejoin="round"/>
<path d="M2.66797 22.667C2.66734 22.922 2.73986 23.1719 2.87693 23.3869C3.014 23.602 3.20987 23.7732 3.44131 23.8803L14.908 29.0937C15.2536 29.2502 15.6286 29.3311 16.008 29.3311C16.3874 29.3311 16.7624 29.2502 17.108 29.0937L28.548 23.8937C28.784 23.7876 28.984 23.6151 29.1237 23.3973C29.2634 23.1795 29.3367 22.9257 29.3346 22.667" stroke="#1447E6" stroke-width="2.66667" stroke-linecap="round" stroke-linejoin="round"/>
</svg>
