<svg width="16" height="16" viewBox="0 0 16 16" fill="none" xmlns="http://www.w3.org/2000/svg">
<path d="M6.66406 5.16703C6.66423 5.07823 6.68804 4.99107 6.73306 4.91451C6.77808 4.83796 6.84267 4.77478 6.9202 4.73147C6.99773 4.68816 7.0854 4.66627 7.17419 4.66807C7.26298 4.66987 7.34968 4.69528 7.4254 4.7417L9.86806 6.24103C9.94086 6.28577 10.001 6.34841 10.0427 6.42299C10.0844 6.49757 10.1063 6.58159 10.1063 6.66703C10.1063 6.75248 10.0844 6.8365 10.0427 6.91108C10.001 6.98565 9.94086 7.0483 9.86806 7.09303L7.4254 8.59303C7.34959 8.63951 7.26276 8.66493 7.17385 8.66667C7.08495 8.66841 6.99719 8.64641 6.91962 8.60294C6.84205 8.55947 6.77748 8.4961 6.73256 8.41936C6.68764 8.34262 6.66399 8.25529 6.66406 8.16637V5.16703Z" stroke="#2B7FFF" stroke-width="1.33333" stroke-linecap="round" stroke-linejoin="round"/>
<path d="M8 11.333V13.9997" stroke="#2B7FFF" stroke-width="1.33333" stroke-linecap="round" stroke-linejoin="round"/>
<path d="M5.33594 14H10.6693" stroke="#2B7FFF" stroke-width="1.33333" stroke-linecap="round" stroke-linejoin="round"/>
<path d="M13.3359 2H2.66927C1.93289 2 1.33594 2.59695 1.33594 3.33333V10C1.33594 10.7364 1.93289 11.3333 2.66927 11.3333H13.3359C14.0723 11.3333 14.6693 10.7364 14.6693 10V3.33333C14.6693 2.59695 14.0723 2 13.3359 2Z" stroke="#2B7FFF" stroke-width="1.33333" stroke-linecap="round" stroke-linejoin="round"/>
</svg>
