<svg width="28" height="28" viewBox="0 0 28 28" fill="none" xmlns="http://www.w3.org/2000/svg">
<path d="M14.9669 2.54342C14.6629 2.40476 14.3327 2.33301 13.9986 2.33301C13.6645 2.33301 13.3342 2.40476 13.0302 2.54342L3.03191 7.09342C2.82488 7.18471 2.64887 7.33422 2.5253 7.52376C2.40173 7.71329 2.33594 7.93467 2.33594 8.16092C2.33594 8.38718 2.40173 8.60856 2.5253 8.79809C2.64887 8.98763 2.82488 9.13714 3.03191 9.22842L13.0419 13.7901C13.3459 13.9287 13.6761 14.0005 14.0102 14.0005C14.3444 14.0005 14.6746 13.9287 14.9786 13.7901L24.9886 9.24009C25.1956 9.14881 25.3716 8.99929 25.4952 8.80976C25.6188 8.62022 25.6845 8.39885 25.6845 8.17259C25.6845 7.94633 25.6188 7.72496 25.4952 7.53542C25.3716 7.34589 25.1956 7.19638 24.9886 7.10509L14.9669 2.54342Z" stroke="#1447E6" stroke-width="2.33333" stroke-linecap="round" stroke-linejoin="round"/>
<path d="M2.33203 14C2.33148 14.2231 2.39494 14.4418 2.51487 14.6299C2.63481 14.8181 2.80619 14.9679 3.0087 15.0617L13.042 19.6233C13.3444 19.7603 13.6726 19.8311 14.0045 19.8311C14.3365 19.8311 14.6646 19.7603 14.967 19.6233L24.977 15.0733C25.1835 14.9805 25.3586 14.8296 25.4808 14.639C25.603 14.4484 25.6672 14.2264 25.6654 14" stroke="#1447E6" stroke-width="2.33333" stroke-linecap="round" stroke-linejoin="round"/>
<path d="M2.33203 19.833C2.33148 20.0562 2.39494 20.2748 2.51487 20.4629C2.63481 20.6511 2.80619 20.801 3.0087 20.8947L13.042 25.4563C13.3444 25.5933 13.6726 25.6641 14.0045 25.6641C14.3365 25.6641 14.6646 25.5933 14.967 25.4563L24.977 20.9063C25.1835 20.8135 25.3586 20.6626 25.4808 20.472C25.603 20.2814 25.6672 20.0594 25.6654 19.833" stroke="#1447E6" stroke-width="2.33333" stroke-linecap="round" stroke-linejoin="round"/>
</svg>
