<svg width="32" height="32" viewBox="0 0 32 32" fill="none" xmlns="http://www.w3.org/2000/svg">
<path d="M14.668 22.6663L17.3346 25.333C17.5973 25.5957 17.9091 25.804 18.2522 25.9461C18.5954 26.0883 18.9632 26.1614 19.3346 26.1614C19.7061 26.1614 20.0739 26.0883 20.417 25.9461C20.7602 25.804 21.072 25.5957 21.3346 25.333C21.5973 25.0704 21.8056 24.7586 21.9478 24.4154C22.0899 24.0722 22.1631 23.7044 22.1631 23.333C22.1631 22.9616 22.0899 22.5938 21.9478 22.2506C21.8056 21.9075 21.5973 21.5957 21.3346 21.333" stroke="#1447E6" stroke-width="2.66667" stroke-linecap="round" stroke-linejoin="round"/>
<path d="M18.667 18.6664L22.0003 21.9997C22.5307 22.5301 23.2502 22.8281 24.0003 22.8281C24.7504 22.8281 25.4699 22.5301 26.0003 21.9997C26.5307 21.4693 26.8287 20.7498 26.8287 19.9997C26.8287 19.2495 26.5307 18.5301 26.0003 17.9997L20.827 12.8264C20.077 12.0773 19.0603 11.6565 18.0003 11.6565C16.9403 11.6565 15.9236 12.0773 15.1736 12.8264L14.0003 13.9997C13.4699 14.5301 12.7504 14.8281 12.0003 14.8281C11.2502 14.8281 10.5307 14.5301 10.0003 13.9997C9.46987 13.4693 9.17188 12.7498 9.17188 11.9997C9.17188 11.2495 9.46987 10.5301 10.0003 9.9997L13.747 6.25303C14.9633 5.03989 16.5495 4.2671 18.2545 4.05699C19.9595 3.84689 21.6859 4.21147 23.1603 5.09303L23.787 5.46636C24.3547 5.80901 25.0297 5.92785 25.6803 5.79969L28.0003 5.33303" stroke="#1447E6" stroke-width="2.66667" stroke-linecap="round" stroke-linejoin="round"/>
<path d="M28.0013 4L29.3346 18.6667H26.668" stroke="#1447E6" stroke-width="2.66667" stroke-linecap="round" stroke-linejoin="round"/>
<path d="M4.0013 4L2.66797 18.6667L11.3346 27.3333C11.8651 27.8638 12.5845 28.1618 13.3346 28.1618C14.0848 28.1618 14.8042 27.8638 15.3346 27.3333C15.8651 26.8029 16.1631 26.0835 16.1631 25.3333C16.1631 24.5832 15.8651 23.8638 15.3346 23.3333" stroke="#1447E6" stroke-width="2.66667" stroke-linecap="round" stroke-linejoin="round"/>
<path d="M4 5.33301H14.6667" stroke="#1447E6" stroke-width="2.66667" stroke-linecap="round" stroke-linejoin="round"/>
</svg>
