<svg width="28" height="28" viewBox="0 0 28 28" fill="none" xmlns="http://www.w3.org/2000/svg">
<path d="M14 17.5C15.933 17.5 17.5 15.933 17.5 14C17.5 12.067 15.933 10.5 14 10.5C12.067 10.5 10.5 12.067 10.5 14C10.5 15.933 12.067 17.5 14 17.5Z" stroke="#1447E6" stroke-width="2.33333" stroke-linecap="round" stroke-linejoin="round"/>
<path d="M5.2487 11.6663H4.66536C4.04653 11.6663 3.45303 11.4205 3.01545 10.9829C2.57786 10.5453 2.33203 9.95185 2.33203 9.33301V4.66634C2.33203 4.0475 2.57786 3.45401 3.01545 3.01643C3.45303 2.57884 4.04653 2.33301 4.66536 2.33301H23.332C23.9509 2.33301 24.5444 2.57884 24.9819 3.01643C25.4195 3.45401 25.6654 4.0475 25.6654 4.66634V9.33301C25.6654 9.95185 25.4195 10.5453 24.9819 10.9829C24.5444 11.4205 23.9509 11.6663 23.332 11.6663H22.7487" stroke="#1447E6" stroke-width="2.33333" stroke-linecap="round" stroke-linejoin="round"/>
<path d="M5.2487 16.333H4.66536C4.04653 16.333 3.45303 16.5788 3.01545 17.0164C2.57786 17.454 2.33203 18.0475 2.33203 18.6663V23.333C2.33203 23.9518 2.57786 24.5453 3.01545 24.9829C3.45303 25.4205 4.04653 25.6663 4.66536 25.6663H23.332C23.9509 25.6663 24.5444 25.4205 24.9819 24.9829C25.4195 24.5453 25.6654 23.9518 25.6654 23.333V18.6663C25.6654 18.0475 25.4195 17.454 24.9819 17.0164C24.5444 16.5788 23.9509 16.333 23.332 16.333H22.7487" stroke="#1447E6" stroke-width="2.33333" stroke-linecap="round" stroke-linejoin="round"/>
<path d="M7 7H7.01167" stroke="#1447E6" stroke-width="2.33333" stroke-linecap="round" stroke-linejoin="round"/>
<path d="M7 21H7.01167" stroke="#1447E6" stroke-width="2.33333" stroke-linecap="round" stroke-linejoin="round"/>
<path d="M18.3156 15.6332L17.2656 15.2832" stroke="#1447E6" stroke-width="2.33333" stroke-linecap="round" stroke-linejoin="round"/>
<path d="M10.7336 12.7162L9.68359 12.3662" stroke="#1447E6" stroke-width="2.33333" stroke-linecap="round" stroke-linejoin="round"/>
<path d="M12.3672 18.3166L12.7172 17.2666" stroke="#1447E6" stroke-width="2.33333" stroke-linecap="round" stroke-linejoin="round"/>
<path d="M15.8651 18.3171L15.3984 17.1504" stroke="#1447E6" stroke-width="2.33333" stroke-linecap="round" stroke-linejoin="round"/>
<path d="M12.5995 10.8503L12.1328 9.68359" stroke="#1447E6" stroke-width="2.33333" stroke-linecap="round" stroke-linejoin="round"/>
<path d="M9.68359 15.8671L10.8503 15.4004" stroke="#1447E6" stroke-width="2.33333" stroke-linecap="round" stroke-linejoin="round"/>
<path d="M17.1484 12.6005L18.3151 12.1338" stroke="#1447E6" stroke-width="2.33333" stroke-linecap="round" stroke-linejoin="round"/>
<path d="M15.6352 9.68359L15.2852 10.7336" stroke="#1447E6" stroke-width="2.33333" stroke-linecap="round" stroke-linejoin="round"/>
</svg>
