<svg width="24" height="24" viewBox="0 0 24 24" fill="none" xmlns="http://www.w3.org/2000/svg">
<path d="M4.00341 14.0002C3.81418 14.0008 3.62864 13.9477 3.46836 13.8471C3.30809 13.7465 3.17964 13.6025 3.09796 13.4318C3.01628 13.2611 2.9847 13.0707 3.00691 12.8828C3.02912 12.6949 3.10419 12.5171 3.22341 12.3702L13.1234 2.17016C13.1977 2.08444 13.2989 2.02652 13.4104 2.0059C13.5219 1.98527 13.6371 2.00318 13.7371 2.05667C13.8371 2.11016 13.916 2.19606 13.9607 2.30027C14.0055 2.40448 14.0135 2.52081 13.9834 2.63016L12.0634 8.65016C12.0068 8.80169 11.9878 8.96468 12.008 9.12517C12.0282 9.28566 12.0871 9.43884 12.1795 9.57159C12.2719 9.70434 12.3952 9.81268 12.5387 9.88732C12.6822 9.96197 12.8417 10.0007 13.0034 10.0002H20.0034C20.1926 9.99952 20.3782 10.0526 20.5385 10.1532C20.6987 10.2538 20.8272 10.3978 20.9089 10.5685C20.9905 10.7392 21.0221 10.9296 20.9999 11.1175C20.9777 11.3054 20.9026 11.4832 20.7834 11.6302L10.8834 21.8302C10.8091 21.9159 10.708 21.9738 10.5964 21.9944C10.4849 22.0151 10.3697 21.9972 10.2697 21.9437C10.1697 21.8902 10.0908 21.8043 10.0461 21.7001C10.0013 21.5958 9.99333 21.4795 10.0234 21.3702L11.9434 15.3502C12 15.1986 12.019 15.0356 11.9988 14.8752C11.9786 14.7147 11.9198 14.5615 11.8273 14.4287C11.7349 14.296 11.6116 14.1876 11.4681 14.113C11.3246 14.0384 11.1652 13.9996 11.0034 14.0002H4.00341Z" stroke="#1447E6" stroke-width="2" stroke-linecap="round" stroke-linejoin="round"/>
</svg>
