<svg width="14" height="14" viewBox="0 0 14 14" fill="none" xmlns="http://www.w3.org/2000/svg">
<path d="M10.4987 2.33301H3.4987C2.85437 2.33301 2.33203 2.85534 2.33203 3.49967V10.4997C2.33203 11.144 2.85437 11.6663 3.4987 11.6663H10.4987C11.143 11.6663 11.6654 11.144 11.6654 10.4997V3.49967C11.6654 2.85534 11.143 2.33301 10.4987 2.33301Z" stroke="#6A7282" stroke-width="1.16667" stroke-linecap="round" stroke-linejoin="round"/>
<path d="M8.16667 5.25H5.83333C5.51117 5.25 5.25 5.51117 5.25 5.83333V8.16667C5.25 8.48883 5.51117 8.75 5.83333 8.75H8.16667C8.48883 8.75 8.75 8.48883 8.75 8.16667V5.83333C8.75 5.51117 8.48883 5.25 8.16667 5.25Z" stroke="#6A7282" stroke-width="1.16667" stroke-linecap="round" stroke-linejoin="round"/>
<path d="M8.75 1.16699V2.33366" stroke="#6A7282" stroke-width="1.16667" stroke-linecap="round" stroke-linejoin="round"/>
<path d="M8.75 11.667V12.8337" stroke="#6A7282" stroke-width="1.16667" stroke-linecap="round" stroke-linejoin="round"/>
<path d="M1.16797 8.75H2.33464" stroke="#6A7282" stroke-width="1.16667" stroke-linecap="round" stroke-linejoin="round"/>
<path d="M1.16797 5.25H2.33464" stroke="#6A7282" stroke-width="1.16667" stroke-linecap="round" stroke-linejoin="round"/>
<path d="M11.668 8.75H12.8346" stroke="#6A7282" stroke-width="1.16667" stroke-linecap="round" stroke-linejoin="round"/>
<path d="M11.668 5.25H12.8346" stroke="#6A7282" stroke-width="1.16667" stroke-linecap="round" stroke-linejoin="round"/>
<path d="M5.25 1.16699V2.33366" stroke="#6A7282" stroke-width="1.16667" stroke-linecap="round" stroke-linejoin="round"/>
<path d="M5.25 11.667V12.8337" stroke="#6A7282" stroke-width="1.16667" stroke-linecap="round" stroke-linejoin="round"/>
</svg>
