<svg width="32" height="32" viewBox="0 0 32 32" fill="none" xmlns="http://www.w3.org/2000/svg">
<path d="M26.668 2.66699H5.33464C3.86188 2.66699 2.66797 3.8609 2.66797 5.33366V10.667C2.66797 12.1398 3.86188 13.3337 5.33464 13.3337H26.668C28.1407 13.3337 29.3346 12.1398 29.3346 10.667V5.33366C29.3346 3.8609 28.1407 2.66699 26.668 2.66699Z" stroke="#1447E6" stroke-width="2.66667" stroke-linecap="round" stroke-linejoin="round"/>
<path d="M26.668 18.667H5.33464C3.86188 18.667 2.66797 19.8609 2.66797 21.3337V26.667C2.66797 28.1398 3.86188 29.3337 5.33464 29.3337H26.668C28.1407 29.3337 29.3346 28.1398 29.3346 26.667V21.3337C29.3346 19.8609 28.1407 18.667 26.668 18.667Z" stroke="#1447E6" stroke-width="2.66667" stroke-linecap="round" stroke-linejoin="round"/>
<path d="M8 8H8.01333" stroke="#1447E6" stroke-width="2.66667" stroke-linecap="round" stroke-linejoin="round"/>
<path d="M8 24H8.01333" stroke="#1447E6" stroke-width="2.66667" stroke-linecap="round" stroke-linejoin="round"/>
</svg>
