<svg width="28" height="28" viewBox="0 0 28 28" fill="none" xmlns="http://www.w3.org/2000/svg">
<path d="M23.3346 15.1669C23.3346 21.0002 19.2513 23.9169 14.398 25.6085C14.1438 25.6947 13.8678 25.6905 13.6163 25.5969C8.7513 23.9169 4.66797 21.0002 4.66797 15.1669V7.0002C4.66797 6.69078 4.79089 6.39403 5.00968 6.17524C5.22847 5.95645 5.52522 5.83353 5.83464 5.83353C8.16797 5.83353 11.0846 4.43353 13.1146 2.6602C13.3618 2.44903 13.6762 2.33301 14.0013 2.33301C14.3264 2.33301 14.6408 2.44903 14.888 2.6602C16.9296 4.4452 19.8346 5.83353 22.168 5.83353C22.4774 5.83353 22.7741 5.95645 22.9929 6.17524C23.2117 6.39403 23.3346 6.69078 23.3346 7.0002V15.1669Z" stroke="#1447E6" stroke-width="2.33333" stroke-linecap="round" stroke-linejoin="round"/>
<path d="M14 9.33301V13.9997" stroke="#1447E6" stroke-width="2.33333" stroke-linecap="round" stroke-linejoin="round"/>
<path d="M14 18.667H14.0117" stroke="#1447E6" stroke-width="2.33333" stroke-linecap="round" stroke-linejoin="round"/>
</svg>
