<svg width="20" height="20" viewBox="0 0 20 20" fill="none" xmlns="http://www.w3.org/2000/svg">
<path d="M16.6693 10.8335C16.6693 15.0002 13.7526 17.0835 10.2859 18.2919C10.1044 18.3534 9.90722 18.3505 9.7276 18.2835C6.2526 17.0835 3.33594 15.0002 3.33594 10.8335V5.00021C3.33594 4.7792 3.42374 4.56724 3.58002 4.41096C3.7363 4.25468 3.94826 4.16688 4.16927 4.16688C5.83594 4.16688 7.91927 3.16688 9.36927 1.90021C9.54582 1.74938 9.7704 1.6665 10.0026 1.6665C10.2348 1.6665 10.4594 1.74938 10.6359 1.90021C12.0943 3.17521 14.1693 4.16688 15.8359 4.16688C16.057 4.16688 16.2689 4.25468 16.4252 4.41096C16.5815 4.56724 16.6693 4.7792 16.6693 5.00021V10.8335Z" stroke="#1447E6" stroke-width="1.66667" stroke-linecap="round" stroke-linejoin="round"/>
<path d="M7.5 9.99992L9.16667 11.6666L12.5 8.33325" stroke="#1447E6" stroke-width="1.66667" stroke-linecap="round" stroke-linejoin="round"/>
</svg>
