<svg width="32" height="32" viewBox="0 0 32 32" fill="none" xmlns="http://www.w3.org/2000/svg">
<path d="M21.3346 26.667V5.33366C21.3346 4.62641 21.0537 3.94814 20.5536 3.44804C20.0535 2.94794 19.3752 2.66699 18.668 2.66699H13.3346C12.6274 2.66699 11.9491 2.94794 11.449 3.44804C10.9489 3.94814 10.668 4.62641 10.668 5.33366V26.667" stroke="#1447E6" stroke-width="2.66667" stroke-linecap="round" stroke-linejoin="round"/>
<path d="M26.668 8H5.33464C3.86188 8 2.66797 9.19391 2.66797 10.6667V24C2.66797 25.4728 3.86188 26.6667 5.33464 26.6667H26.668C28.1407 26.6667 29.3346 25.4728 29.3346 24V10.6667C29.3346 9.19391 28.1407 8 26.668 8Z" stroke="#1447E6" stroke-width="2.66667" stroke-linecap="round" stroke-linejoin="round"/>
</svg>
