<svg width="28" height="28" viewBox="0 0 28 28" fill="none" xmlns="http://www.w3.org/2000/svg">
<path d="M21.0013 4.66699H7.0013C5.71264 4.66699 4.66797 5.71166 4.66797 7.00033V21.0003C4.66797 22.289 5.71264 23.3337 7.0013 23.3337H21.0013C22.29 23.3337 23.3346 22.289 23.3346 21.0003V7.00033C23.3346 5.71166 22.29 4.66699 21.0013 4.66699Z" stroke="#1447E6" stroke-width="2.33333" stroke-linecap="round" stroke-linejoin="round"/>
<path d="M16.3333 10.5H11.6667C11.0223 10.5 10.5 11.0223 10.5 11.6667V16.3333C10.5 16.9777 11.0223 17.5 11.6667 17.5H16.3333C16.9777 17.5 17.5 16.9777 17.5 16.3333V11.6667C17.5 11.0223 16.9777 10.5 16.3333 10.5Z" stroke="#1447E6" stroke-width="2.33333" stroke-linecap="round" stroke-linejoin="round"/>
<path d="M17.5 2.33301V4.66634" stroke="#1447E6" stroke-width="2.33333" stroke-linecap="round" stroke-linejoin="round"/>
<path d="M17.5 23.333V25.6663" stroke="#1447E6" stroke-width="2.33333" stroke-linecap="round" stroke-linejoin="round"/>
<path d="M2.33203 17.5H4.66536" stroke="#1447E6" stroke-width="2.33333" stroke-linecap="round" stroke-linejoin="round"/>
<path d="M2.33203 10.5H4.66536" stroke="#1447E6" stroke-width="2.33333" stroke-linecap="round" stroke-linejoin="round"/>
<path d="M23.332 17.5H25.6654" stroke="#1447E6" stroke-width="2.33333" stroke-linecap="round" stroke-linejoin="round"/>
<path d="M23.332 10.5H25.6654" stroke="#1447E6" stroke-width="2.33333" stroke-linecap="round" stroke-linejoin="round"/>
<path d="M10.5 2.33301V4.66634" stroke="#1447E6" stroke-width="2.33333" stroke-linecap="round" stroke-linejoin="round"/>
<path d="M10.5 23.333V25.6663" stroke="#1447E6" stroke-width="2.33333" stroke-linecap="round" stroke-linejoin="round"/>
</svg>
